<svg version="1.2" xmlns="http://www.w3.org/2000/svg" viewBox="0 0 400 400" width="400" height="400">
	<title>WhatsApp Image 2024-11-23 at 20</title>
	<style>
		.s0 { opacity: .6;fill: #5c4e50 } 
		.s1 { opacity: 1;fill: #0f0f0f } 
		.s2 { opacity: 1;fill: #3f1954 } 
	</style>
	<g id="Background">
		<path id="Path 0" class="s0" d="m257.2 82.7c22.8 0.4 60.6 0.4 84 0 23.4-0.4 4.8-0.7-41.4-0.7-46.2 0-65.4 0.3-42.6 0.7zm-74 50.7c1.6 1.8 3.5 2.6 4.2 2 0.6-0.7-0.7-2.1-3-3.1-3.3-1.6-3.6-1.4-1.2 1.1zm-155.9 8.5c-3 3.8-2.9 3.8 1 0.6 2.4-2 4.2-3.9 4.2-4.2-0.1-0.3-0.6-0.6-1.1-0.6-0.5 0-2.3 1.9-4.1 4.2zm73.7 175.1c5.8 0.5 14.4 0.4 18.9-0.1 4.6-0.5-0.2-0.9-10.6-0.9-10.4 0-14.2 0.5-8.3 1z"/>
		<path id="Path 1" class="s1" d="m210.4 86.3c-1.3 1.6-7.8 12.2-14.5 23.6-6.6 11.4-12.1 21.3-12.1 21.9 0 0.7 39.4 1.2 87.6 1.2 73.1 0 88.7-0.6 94.6-3.6 4.1-2 10.6-9.3 15.3-17.1 4.6-7.5 8.3-16.5 8.3-20.1 0.1-3.8-1.4-7-3.4-7.7-2-0.7-41.8-1.2-88.5-1.2-65.1 0-85.5 0.7-87.3 3zm-59.1 97.5c1 0.7-0.1 3.2-2.4 5.7-2.3 2.4-15.8 24.4-30.2 48.9-14.3 24.4-25.7 44.8-25.4 45.3 0.3 0.4-1.6 3.2-4.3 6.1-2.6 2.9-5.4 7.4-6.1 10-0.7 2.6-0.2 7.2 1.3 10.1 2.4 4.9 4.2 5.3 23.9 5.3 18.8 0 21.9-0.6 26.9-5.3 3.1-2.9 14.8-21 26-40.2l20.5-34.9c109.1 0 115.5-0.5 123-4.5 5.5-3 10.9-9.1 16-18.3 4.2-7.7 7.6-15.8 7.7-18.1 0-2.2-1.6-5.7-3.6-7.7-3-3-16.3-3.5-89.3-3.6-47.2 0-85 0.5-84 1.2z"/>
		<path id="Path 2" class="s2" d="m34.1 138c-2.3 1.4-8.5 9.1-13.7 17.1-5.2 8-9.4 17-9.4 19.9 0 2.9 1.7 6.9 3.6 8.9 3 3 14.2 3.5 71 3.5 37.1 0 67-0.8 66.4-1.7-0.6-1 4.8-11.9 11.9-24.3 7.2-12.4 12.9-23.3 12.9-24.3 0-0.9-31.2-1.7-69.3-1.7-44.7 0.1-70.7 1-73.4 2.6z"/>
	</g>
</svg>